%TF.GenerationSoftware,KiCad,Pcbnew,9.0.7*%
%TF.CreationDate,2026-02-23T16:37:57-05:00*%
%TF.ProjectId,regulator_daughter_board,72656775-6c61-4746-9f72-5f6461756768,rev?*%
%TF.SameCoordinates,Original*%
%TF.FileFunction,Drillmap*%
%TF.FilePolarity,Positive*%
%FSLAX45Y45*%
G04 Gerber Fmt 4.5, Leading zero omitted, Abs format (unit mm)*
G04 Created by KiCad (PCBNEW 9.0.7) date 2026-02-23 16:37:57*
%MOMM*%
%LPD*%
G01*
G04 APERTURE LIST*
%ADD10C,0.200000*%
%ADD11C,0.100000*%
G04 APERTURE END LIST*
D10*
X-9402Y1400000D02*
X1890598Y1400000D01*
X1890598Y0D01*
X-9402Y0D01*
X-9402Y1400000D01*
D11*
X378598Y350000D02*
X478598Y250000D01*
X478598Y350000D02*
X378598Y250000D01*
X632598Y350000D02*
X732598Y250000D01*
X732598Y350000D02*
X632598Y250000D01*
X886598Y350000D02*
X986598Y250000D01*
X986598Y350000D02*
X886598Y250000D01*
X1140598Y350000D02*
X1240598Y250000D01*
X1240598Y350000D02*
X1140598Y250000D01*
D10*
X241375Y-321484D02*
X241375Y-121484D01*
X241375Y-121484D02*
X288994Y-121484D01*
X288994Y-121484D02*
X317565Y-131008D01*
X317565Y-131008D02*
X336613Y-150055D01*
X336613Y-150055D02*
X346137Y-169103D01*
X346137Y-169103D02*
X355660Y-207198D01*
X355660Y-207198D02*
X355660Y-235769D01*
X355660Y-235769D02*
X346137Y-273865D01*
X346137Y-273865D02*
X336613Y-292912D01*
X336613Y-292912D02*
X317565Y-311960D01*
X317565Y-311960D02*
X288994Y-321484D01*
X288994Y-321484D02*
X241375Y-321484D01*
X441375Y-321484D02*
X441375Y-188150D01*
X441375Y-226246D02*
X450899Y-207198D01*
X450899Y-207198D02*
X460422Y-197674D01*
X460422Y-197674D02*
X479470Y-188150D01*
X479470Y-188150D02*
X498518Y-188150D01*
X565184Y-321484D02*
X565184Y-188150D01*
X565184Y-121484D02*
X555661Y-131008D01*
X555661Y-131008D02*
X565184Y-140531D01*
X565184Y-140531D02*
X574708Y-131008D01*
X574708Y-131008D02*
X565184Y-121484D01*
X565184Y-121484D02*
X565184Y-140531D01*
X688994Y-321484D02*
X669946Y-311960D01*
X669946Y-311960D02*
X660422Y-292912D01*
X660422Y-292912D02*
X660422Y-121484D01*
X793756Y-321484D02*
X774708Y-311960D01*
X774708Y-311960D02*
X765184Y-292912D01*
X765184Y-292912D02*
X765184Y-121484D01*
X1022327Y-321484D02*
X1022327Y-121484D01*
X1022327Y-121484D02*
X1088994Y-264341D01*
X1088994Y-264341D02*
X1155661Y-121484D01*
X1155661Y-121484D02*
X1155661Y-321484D01*
X1336613Y-321484D02*
X1336613Y-216722D01*
X1336613Y-216722D02*
X1327089Y-197674D01*
X1327089Y-197674D02*
X1308042Y-188150D01*
X1308042Y-188150D02*
X1269946Y-188150D01*
X1269946Y-188150D02*
X1250899Y-197674D01*
X1336613Y-311960D02*
X1317565Y-321484D01*
X1317565Y-321484D02*
X1269946Y-321484D01*
X1269946Y-321484D02*
X1250899Y-311960D01*
X1250899Y-311960D02*
X1241375Y-292912D01*
X1241375Y-292912D02*
X1241375Y-273865D01*
X1241375Y-273865D02*
X1250899Y-254817D01*
X1250899Y-254817D02*
X1269946Y-245293D01*
X1269946Y-245293D02*
X1317565Y-245293D01*
X1317565Y-245293D02*
X1336613Y-235769D01*
X1431851Y-188150D02*
X1431851Y-388150D01*
X1431851Y-197674D02*
X1450899Y-188150D01*
X1450899Y-188150D02*
X1488994Y-188150D01*
X1488994Y-188150D02*
X1508041Y-197674D01*
X1508041Y-197674D02*
X1517565Y-207198D01*
X1517565Y-207198D02*
X1527089Y-226246D01*
X1527089Y-226246D02*
X1527089Y-283389D01*
X1527089Y-283389D02*
X1517565Y-302436D01*
X1517565Y-302436D02*
X1508041Y-311960D01*
X1508041Y-311960D02*
X1488994Y-321484D01*
X1488994Y-321484D02*
X1450899Y-321484D01*
X1450899Y-321484D02*
X1431851Y-311960D01*
X1612803Y-302436D02*
X1622327Y-311960D01*
X1622327Y-311960D02*
X1612803Y-321484D01*
X1612803Y-321484D02*
X1603280Y-311960D01*
X1603280Y-311960D02*
X1612803Y-302436D01*
X1612803Y-302436D02*
X1612803Y-321484D01*
X1612803Y-197674D02*
X1622327Y-207198D01*
X1622327Y-207198D02*
X1612803Y-216722D01*
X1612803Y-216722D02*
X1603280Y-207198D01*
X1603280Y-207198D02*
X1612803Y-197674D01*
X1612803Y-197674D02*
X1612803Y-216722D01*
D11*
X-119402Y-600000D02*
X-19402Y-700000D01*
X-19402Y-600000D02*
X-119402Y-700000D01*
D10*
X346137Y-741484D02*
X231851Y-741484D01*
X288994Y-741484D02*
X288994Y-541484D01*
X288994Y-541484D02*
X269946Y-570055D01*
X269946Y-570055D02*
X250899Y-589103D01*
X250899Y-589103D02*
X231851Y-598627D01*
X431851Y-722436D02*
X441375Y-731960D01*
X441375Y-731960D02*
X431851Y-741484D01*
X431851Y-741484D02*
X422327Y-731960D01*
X422327Y-731960D02*
X431851Y-722436D01*
X431851Y-722436D02*
X431851Y-741484D01*
X565184Y-541484D02*
X584232Y-541484D01*
X584232Y-541484D02*
X603280Y-551008D01*
X603280Y-551008D02*
X612803Y-560531D01*
X612803Y-560531D02*
X622327Y-579579D01*
X622327Y-579579D02*
X631851Y-617674D01*
X631851Y-617674D02*
X631851Y-665293D01*
X631851Y-665293D02*
X622327Y-703388D01*
X622327Y-703388D02*
X612803Y-722436D01*
X612803Y-722436D02*
X603280Y-731960D01*
X603280Y-731960D02*
X584232Y-741484D01*
X584232Y-741484D02*
X565184Y-741484D01*
X565184Y-741484D02*
X546137Y-731960D01*
X546137Y-731960D02*
X536613Y-722436D01*
X536613Y-722436D02*
X527089Y-703388D01*
X527089Y-703388D02*
X517565Y-665293D01*
X517565Y-665293D02*
X517565Y-617674D01*
X517565Y-617674D02*
X527089Y-579579D01*
X527089Y-579579D02*
X536613Y-560531D01*
X536613Y-560531D02*
X546137Y-551008D01*
X546137Y-551008D02*
X565184Y-541484D01*
X755660Y-541484D02*
X774708Y-541484D01*
X774708Y-541484D02*
X793756Y-551008D01*
X793756Y-551008D02*
X803280Y-560531D01*
X803280Y-560531D02*
X812803Y-579579D01*
X812803Y-579579D02*
X822327Y-617674D01*
X822327Y-617674D02*
X822327Y-665293D01*
X822327Y-665293D02*
X812803Y-703388D01*
X812803Y-703388D02*
X803280Y-722436D01*
X803280Y-722436D02*
X793756Y-731960D01*
X793756Y-731960D02*
X774708Y-741484D01*
X774708Y-741484D02*
X755660Y-741484D01*
X755660Y-741484D02*
X736613Y-731960D01*
X736613Y-731960D02*
X727089Y-722436D01*
X727089Y-722436D02*
X717565Y-703388D01*
X717565Y-703388D02*
X708041Y-665293D01*
X708041Y-665293D02*
X708041Y-617674D01*
X708041Y-617674D02*
X717565Y-579579D01*
X717565Y-579579D02*
X727089Y-560531D01*
X727089Y-560531D02*
X736613Y-551008D01*
X736613Y-551008D02*
X755660Y-541484D01*
X946137Y-541484D02*
X965184Y-541484D01*
X965184Y-541484D02*
X984232Y-551008D01*
X984232Y-551008D02*
X993756Y-560531D01*
X993756Y-560531D02*
X1003280Y-579579D01*
X1003280Y-579579D02*
X1012803Y-617674D01*
X1012803Y-617674D02*
X1012803Y-665293D01*
X1012803Y-665293D02*
X1003280Y-703388D01*
X1003280Y-703388D02*
X993756Y-722436D01*
X993756Y-722436D02*
X984232Y-731960D01*
X984232Y-731960D02*
X965184Y-741484D01*
X965184Y-741484D02*
X946137Y-741484D01*
X946137Y-741484D02*
X927089Y-731960D01*
X927089Y-731960D02*
X917565Y-722436D01*
X917565Y-722436D02*
X908041Y-703388D01*
X908041Y-703388D02*
X898518Y-665293D01*
X898518Y-665293D02*
X898518Y-617674D01*
X898518Y-617674D02*
X908041Y-579579D01*
X908041Y-579579D02*
X917565Y-560531D01*
X917565Y-560531D02*
X927089Y-551008D01*
X927089Y-551008D02*
X946137Y-541484D01*
X1098518Y-741484D02*
X1098518Y-608150D01*
X1098518Y-627198D02*
X1108042Y-617674D01*
X1108042Y-617674D02*
X1127089Y-608150D01*
X1127089Y-608150D02*
X1155661Y-608150D01*
X1155661Y-608150D02*
X1174708Y-617674D01*
X1174708Y-617674D02*
X1184232Y-636722D01*
X1184232Y-636722D02*
X1184232Y-741484D01*
X1184232Y-636722D02*
X1193756Y-617674D01*
X1193756Y-617674D02*
X1212803Y-608150D01*
X1212803Y-608150D02*
X1241375Y-608150D01*
X1241375Y-608150D02*
X1260423Y-617674D01*
X1260423Y-617674D02*
X1269946Y-636722D01*
X1269946Y-636722D02*
X1269946Y-741484D01*
X1365184Y-741484D02*
X1365184Y-608150D01*
X1365184Y-627198D02*
X1374708Y-617674D01*
X1374708Y-617674D02*
X1393756Y-608150D01*
X1393756Y-608150D02*
X1422327Y-608150D01*
X1422327Y-608150D02*
X1441375Y-617674D01*
X1441375Y-617674D02*
X1450899Y-636722D01*
X1450899Y-636722D02*
X1450899Y-741484D01*
X1450899Y-636722D02*
X1460422Y-617674D01*
X1460422Y-617674D02*
X1479470Y-608150D01*
X1479470Y-608150D02*
X1508041Y-608150D01*
X1508041Y-608150D02*
X1527089Y-617674D01*
X1527089Y-617674D02*
X1536613Y-636722D01*
X1536613Y-636722D02*
X1536613Y-741484D01*
X1927089Y-531960D02*
X1755661Y-789103D01*
X2184232Y-541484D02*
X2203280Y-541484D01*
X2203280Y-541484D02*
X2222327Y-551008D01*
X2222327Y-551008D02*
X2231851Y-560531D01*
X2231851Y-560531D02*
X2241375Y-579579D01*
X2241375Y-579579D02*
X2250899Y-617674D01*
X2250899Y-617674D02*
X2250899Y-665293D01*
X2250899Y-665293D02*
X2241375Y-703388D01*
X2241375Y-703388D02*
X2231851Y-722436D01*
X2231851Y-722436D02*
X2222327Y-731960D01*
X2222327Y-731960D02*
X2203280Y-741484D01*
X2203280Y-741484D02*
X2184232Y-741484D01*
X2184232Y-741484D02*
X2165185Y-731960D01*
X2165185Y-731960D02*
X2155661Y-722436D01*
X2155661Y-722436D02*
X2146137Y-703388D01*
X2146137Y-703388D02*
X2136613Y-665293D01*
X2136613Y-665293D02*
X2136613Y-617674D01*
X2136613Y-617674D02*
X2146137Y-579579D01*
X2146137Y-579579D02*
X2155661Y-560531D01*
X2155661Y-560531D02*
X2165185Y-551008D01*
X2165185Y-551008D02*
X2184232Y-541484D01*
X2336613Y-722436D02*
X2346137Y-731960D01*
X2346137Y-731960D02*
X2336613Y-741484D01*
X2336613Y-741484D02*
X2327089Y-731960D01*
X2327089Y-731960D02*
X2336613Y-722436D01*
X2336613Y-722436D02*
X2336613Y-741484D01*
X2469946Y-541484D02*
X2488994Y-541484D01*
X2488994Y-541484D02*
X2508042Y-551008D01*
X2508042Y-551008D02*
X2517566Y-560531D01*
X2517566Y-560531D02*
X2527089Y-579579D01*
X2527089Y-579579D02*
X2536613Y-617674D01*
X2536613Y-617674D02*
X2536613Y-665293D01*
X2536613Y-665293D02*
X2527089Y-703388D01*
X2527089Y-703388D02*
X2517566Y-722436D01*
X2517566Y-722436D02*
X2508042Y-731960D01*
X2508042Y-731960D02*
X2488994Y-741484D01*
X2488994Y-741484D02*
X2469946Y-741484D01*
X2469946Y-741484D02*
X2450899Y-731960D01*
X2450899Y-731960D02*
X2441375Y-722436D01*
X2441375Y-722436D02*
X2431851Y-703388D01*
X2431851Y-703388D02*
X2422327Y-665293D01*
X2422327Y-665293D02*
X2422327Y-617674D01*
X2422327Y-617674D02*
X2431851Y-579579D01*
X2431851Y-579579D02*
X2441375Y-560531D01*
X2441375Y-560531D02*
X2450899Y-551008D01*
X2450899Y-551008D02*
X2469946Y-541484D01*
X2603280Y-541484D02*
X2727089Y-541484D01*
X2727089Y-541484D02*
X2660423Y-617674D01*
X2660423Y-617674D02*
X2688994Y-617674D01*
X2688994Y-617674D02*
X2708042Y-627198D01*
X2708042Y-627198D02*
X2717566Y-636722D01*
X2717566Y-636722D02*
X2727089Y-655770D01*
X2727089Y-655770D02*
X2727089Y-703388D01*
X2727089Y-703388D02*
X2717566Y-722436D01*
X2717566Y-722436D02*
X2708042Y-731960D01*
X2708042Y-731960D02*
X2688994Y-741484D01*
X2688994Y-741484D02*
X2631851Y-741484D01*
X2631851Y-741484D02*
X2612804Y-731960D01*
X2612804Y-731960D02*
X2603280Y-722436D01*
X2822327Y-741484D02*
X2860423Y-741484D01*
X2860423Y-741484D02*
X2879470Y-731960D01*
X2879470Y-731960D02*
X2888994Y-722436D01*
X2888994Y-722436D02*
X2908042Y-693865D01*
X2908042Y-693865D02*
X2917565Y-655770D01*
X2917565Y-655770D02*
X2917565Y-579579D01*
X2917565Y-579579D02*
X2908042Y-560531D01*
X2908042Y-560531D02*
X2898518Y-551008D01*
X2898518Y-551008D02*
X2879470Y-541484D01*
X2879470Y-541484D02*
X2841375Y-541484D01*
X2841375Y-541484D02*
X2822327Y-551008D01*
X2822327Y-551008D02*
X2812804Y-560531D01*
X2812804Y-560531D02*
X2803280Y-579579D01*
X2803280Y-579579D02*
X2803280Y-627198D01*
X2803280Y-627198D02*
X2812804Y-646246D01*
X2812804Y-646246D02*
X2822327Y-655770D01*
X2822327Y-655770D02*
X2841375Y-665293D01*
X2841375Y-665293D02*
X2879470Y-665293D01*
X2879470Y-665293D02*
X2898518Y-655770D01*
X2898518Y-655770D02*
X2908042Y-646246D01*
X2908042Y-646246D02*
X2917565Y-627198D01*
X3088994Y-608150D02*
X3088994Y-741484D01*
X3041375Y-531960D02*
X2993756Y-674817D01*
X2993756Y-674817D02*
X3117565Y-674817D01*
X3184232Y-541484D02*
X3184232Y-579579D01*
X3260423Y-541484D02*
X3260423Y-579579D01*
X3555661Y-817674D02*
X3546137Y-808150D01*
X3546137Y-808150D02*
X3527089Y-779579D01*
X3527089Y-779579D02*
X3517566Y-760531D01*
X3517566Y-760531D02*
X3508042Y-731960D01*
X3508042Y-731960D02*
X3498518Y-684341D01*
X3498518Y-684341D02*
X3498518Y-646246D01*
X3498518Y-646246D02*
X3508042Y-598627D01*
X3508042Y-598627D02*
X3517566Y-570055D01*
X3517566Y-570055D02*
X3527089Y-551008D01*
X3527089Y-551008D02*
X3546137Y-522436D01*
X3546137Y-522436D02*
X3555661Y-512912D01*
X3717566Y-608150D02*
X3717566Y-741484D01*
X3669946Y-531960D02*
X3622327Y-674817D01*
X3622327Y-674817D02*
X3746137Y-674817D01*
X3974708Y-741484D02*
X3974708Y-541484D01*
X4060423Y-741484D02*
X4060423Y-636722D01*
X4060423Y-636722D02*
X4050899Y-617674D01*
X4050899Y-617674D02*
X4031851Y-608150D01*
X4031851Y-608150D02*
X4003280Y-608150D01*
X4003280Y-608150D02*
X3984232Y-617674D01*
X3984232Y-617674D02*
X3974708Y-627198D01*
X4184232Y-741484D02*
X4165185Y-731960D01*
X4165185Y-731960D02*
X4155661Y-722436D01*
X4155661Y-722436D02*
X4146137Y-703388D01*
X4146137Y-703388D02*
X4146137Y-646246D01*
X4146137Y-646246D02*
X4155661Y-627198D01*
X4155661Y-627198D02*
X4165185Y-617674D01*
X4165185Y-617674D02*
X4184232Y-608150D01*
X4184232Y-608150D02*
X4212804Y-608150D01*
X4212804Y-608150D02*
X4231851Y-617674D01*
X4231851Y-617674D02*
X4241375Y-627198D01*
X4241375Y-627198D02*
X4250899Y-646246D01*
X4250899Y-646246D02*
X4250899Y-703388D01*
X4250899Y-703388D02*
X4241375Y-722436D01*
X4241375Y-722436D02*
X4231851Y-731960D01*
X4231851Y-731960D02*
X4212804Y-741484D01*
X4212804Y-741484D02*
X4184232Y-741484D01*
X4365185Y-741484D02*
X4346137Y-731960D01*
X4346137Y-731960D02*
X4336613Y-712912D01*
X4336613Y-712912D02*
X4336613Y-541484D01*
X4517566Y-731960D02*
X4498518Y-741484D01*
X4498518Y-741484D02*
X4460423Y-741484D01*
X4460423Y-741484D02*
X4441375Y-731960D01*
X4441375Y-731960D02*
X4431851Y-712912D01*
X4431851Y-712912D02*
X4431851Y-636722D01*
X4431851Y-636722D02*
X4441375Y-617674D01*
X4441375Y-617674D02*
X4460423Y-608150D01*
X4460423Y-608150D02*
X4498518Y-608150D01*
X4498518Y-608150D02*
X4517566Y-617674D01*
X4517566Y-617674D02*
X4527090Y-636722D01*
X4527090Y-636722D02*
X4527090Y-655770D01*
X4527090Y-655770D02*
X4431851Y-674817D01*
X4603280Y-731960D02*
X4622328Y-741484D01*
X4622328Y-741484D02*
X4660423Y-741484D01*
X4660423Y-741484D02*
X4679471Y-731960D01*
X4679471Y-731960D02*
X4688994Y-712912D01*
X4688994Y-712912D02*
X4688994Y-703388D01*
X4688994Y-703388D02*
X4679471Y-684341D01*
X4679471Y-684341D02*
X4660423Y-674817D01*
X4660423Y-674817D02*
X4631851Y-674817D01*
X4631851Y-674817D02*
X4612804Y-665293D01*
X4612804Y-665293D02*
X4603280Y-646246D01*
X4603280Y-646246D02*
X4603280Y-636722D01*
X4603280Y-636722D02*
X4612804Y-617674D01*
X4612804Y-617674D02*
X4631851Y-608150D01*
X4631851Y-608150D02*
X4660423Y-608150D01*
X4660423Y-608150D02*
X4679471Y-617674D01*
X4755661Y-817674D02*
X4765185Y-808150D01*
X4765185Y-808150D02*
X4784232Y-779579D01*
X4784232Y-779579D02*
X4793756Y-760531D01*
X4793756Y-760531D02*
X4803280Y-731960D01*
X4803280Y-731960D02*
X4812804Y-684341D01*
X4812804Y-684341D02*
X4812804Y-646246D01*
X4812804Y-646246D02*
X4803280Y-598627D01*
X4803280Y-598627D02*
X4793756Y-570055D01*
X4793756Y-570055D02*
X4784232Y-551008D01*
X4784232Y-551008D02*
X4765185Y-522436D01*
X4765185Y-522436D02*
X4755661Y-512912D01*
M02*
